<svg width="170" height="30" viewBox="0 0 170 30" fill="none" xmlns="http://www.w3.org/2000/svg">
<g clip-path="url(#clip0_516_12)">
<path d="M61.1001 27.9V19.2C61.1001 16.18 61.0701 13.89 60.8401 12.43L66.8101 27.9H70.6201L76.6201 12.4C76.3901 14.13 76.3901 15.55 76.3901 20.43V27.9H80.3901V3.63H76.3301L68.7201 22.95L61.1001 3.63H57.1001V27.9H61.1001Z" fill="white"/>
<path d="M89.7701 28.33C92.2501 28.33 94.4201 27.17 95.0901 25.47L95.3801 27.89H98.8301V17.93C98.8301 13.38 96.1801 10.99 91.8901 10.99C87.5701 10.99 84.7301 13.31 84.7301 16.87H88.0901C88.0901 15.14 89.3801 14.15 91.7001 14.15C93.7001 14.15 94.9901 15.05 94.9901 17.27V17.64L90.2201 18.01C86.4501 18.31 84.3201 20.2 84.3201 23.22C84.3201 26.31 86.3901 28.33 89.7701 28.33ZM91.0601 25.28C89.2901 25.28 88.3201 24.55 88.3201 23.06C88.3201 21.73 89.2601 20.9 91.7101 20.67L95.0301 20.4V21.26C95.0301 23.79 93.4801 25.28 91.0601 25.28Z" fill="white"/>
<path d="M105.48 27.9L108.83 22.49L112.22 27.9H116.74L111.48 19.8L116.9 11.5H112.48L109.09 17.08L105.57 11.5H101L106.49 19.87L101 27.9H105.48Z" fill="white"/>
<path d="M121.21 8.20996C122.5 8.20996 123.56 7.10996 123.56 5.74996C123.56 4.38996 122.5 3.32996 121.21 3.32996C119.85 3.32996 118.79 4.38996 118.79 5.74996C118.79 7.11996 119.86 8.20996 121.21 8.20996ZM119.25 27.9H123.19V11.5H119.25V27.9Z" fill="white"/>
<path d="M131.18 27.9V18.6C131.18 15.94 132.7 14.68 134.57 14.68C136.44 14.68 137.64 15.91 137.64 18.2V27.89H141.58V18.59C141.58 15.9 143.03 14.64 144.93 14.64C146.8 14.64 148.03 15.87 148.03 18.23V27.89H151.93V17.18C151.93 13.4 149.8 11 145.93 11C143.51 11 141.64 12.23 140.83 14.12C139.99 12.23 138.31 11 135.89 11C133.6 11 131.99 12.06 131.18 13.42L130.86 11.49H127.25V27.89H131.18V27.9Z" fill="white"/>
<path d="M160.53 28.33C163.01 28.33 165.18 27.17 165.85 25.47L166.14 27.89H169.59V17.93C169.59 13.38 166.95 10.99 162.65 10.99C158.33 10.99 155.49 13.31 155.49 16.87H158.84C158.84 15.14 160.13 14.15 162.45 14.15C164.45 14.15 165.74 15.05 165.74 17.27V17.64L160.97 18.01C157.19 18.31 155.07 20.2 155.07 23.22C155.08 26.31 157.15 28.33 160.53 28.33ZM161.82 25.28C160.05 25.28 159.08 24.55 159.08 23.06C159.08 21.73 160.02 20.9 162.47 20.67L165.79 20.4V21.26C165.79 23.79 164.24 25.28 161.82 25.28Z" fill="white"/>
<path d="M44.54 0V29.38C44.54 29.72 44.26 30 43.91 30H36.41C36.07 30 35.79 29.72 35.79 29.38V16.15L28.46 29.67C28.36 29.87 28.14 30 27.92 30H18.29C17.94 30 17.66 29.72 17.66 29.38V16.16L10.34 29.67C10.23 29.87 10.02 30 9.79001 30H0.63001C0.14001 30 -0.15999 29.48 0.09001 29.06L16.86 0.31C16.97 0.12 17.17 0 17.4 0H26.41V15L34.98 0.31C35.09 0.12 35.3 0 35.52 0H44.54Z" fill="#3056D3"/>
<path d="M7.09993 3.33C7.09993 5.17 5.60993 6.66 3.76993 6.66C1.92993 6.66 0.429932 5.17 0.429932 3.33C0.429932 1.49 1.92993 0 3.76993 0C5.60993 0 7.09993 1.49 7.09993 3.33Z" fill="#3056D3"/>
</g>
<defs>
<clipPath id="clip0_516_12">
<rect width="170" height="30" fill="white"/>
</clipPath>
</defs>
</svg>
